<?xml version="1.0" standalone="no"?><!DOCTYPE svg PUBLIC "-//W3C//DTD SVG 1.1//EN" "http://www.w3.org/Graphics/SVG/1.1/DTD/svg11.dtd"><svg t="1755757448733" class="icon" viewBox="0 0 1024 1024" version="1.1" xmlns="http://www.w3.org/2000/svg" p-id="31552" xmlns:xlink="http://www.w3.org/1999/xlink" width="180" height="180"><path d="M793.738411 1020.928c27.149653-17.247573 50.008747-40.41728 65.419946-71.34208a262.8096 262.8096 0 0 0-11.431253-258.218667c-61.3376-98.18112-177.380693-160.948907-278.1184-205.346133 90.528427-52.667733 120.73984-151.053653 120.73984-238.72512 0-111.65696-58.89024-195.959467-144.213333-243.92704C558.587051 1.430187 571.141291 0 584.101717 0c125.945173 0 228.109653 87.978667 228.109654 240.86528 0 119.313067-62.6688 220.14976-149.930667 259.037867 138.089813 23.67488 257.194667 107.977387 331.905707 227.495253 78.1824 125.125973-8.977067 293.5296-149.521067 293.5296h-50.926933z m14.892373-293.5296c78.178987 125.125973-8.98048 293.5296-149.521067 293.5296H178.939051c-140.537173 0-227.700053-168.403627-149.521067-293.5296 74.71104-119.517867 193.815893-203.820373 331.905707-227.498667-87.261867-38.884693-149.927253-139.721387-149.927254-259.034453C211.396437 87.978667 293.077504 0 419.022677 0c125.94176 0 207.62624 87.978667 207.62624 240.86528 0 119.313067-62.665387 220.14976-149.927253 259.037867 138.089813 23.67488 257.194667 107.977387 331.905707 227.495253z" fill="#4e46e5" p-id="31553"></path></svg>