<?xml version="1.0" standalone="no"?><!DOCTYPE svg PUBLIC "-//W3C//DTD SVG 1.1//EN" "http://www.w3.org/Graphics/SVG/1.1/DTD/svg11.dtd"><svg t="1755764628210" class="icon" viewBox="0 0 1024 1024" version="1.1" xmlns="http://www.w3.org/2000/svg" p-id="32670" xmlns:xlink="http://www.w3.org/1999/xlink" width="180" height="180"><path d="M759.872 393.792V207.04a48.832 48.832 0 0 0-24.896-40.768L567.872 70.08a49.728 49.728 0 0 0-47.744 0L353.024 164.288a48.896 48.896 0 0 0-24.896 40.704v188.8a49.28 49.28 0 0 0 24.896 42.752l167.104 93.76a47.68 47.68 0 0 0 47.744 0l167.104-93.76a49.28 49.28 0 0 0 24.896-42.752zM471.616 613.504L304.512 519.296a47.68 47.68 0 0 0-47.68 0L88.896 613.504a48.512 48.512 0 0 0-24.896 40.768v187.072a48.512 48.512 0 0 0 24.896 40.768L256 976.256a49.664 49.664 0 0 0 47.68 0l167.936-90.88a48.576 48.576 0 0 0 24.896-40.768v-188.736a48.512 48.512 0 0 0-24.896-42.368z m527.488 0L832 519.296a48.128 48.128 0 0 0-48.128 0L617.152 613.504a48.512 48.512 0 0 0-24.832 40.768v187.072a48.512 48.512 0 0 0 24.832 40.768l167.168 94.144a49.664 49.664 0 0 0 47.68 0l167.104-94.08a49.28 49.28 0 0 0 24.896-40.832v-185.472a49.28 49.28 0 0 0-24.896-42.368z" fill="#519add" p-id="32671"></path></svg>