<?xml version="1.0" standalone="no"?><!DOCTYPE svg PUBLIC "-//W3C//DTD SVG 1.1//EN" "http://www.w3.org/Graphics/SVG/1.1/DTD/svg11.dtd"><svg t="1755167827048" class="icon" viewBox="0 0 1024 1024" version="1.1" xmlns="http://www.w3.org/2000/svg" p-id="11673" xmlns:xlink="http://www.w3.org/1999/xlink" width="180" height="180"><path d="M806.436327 515.549842l-60.954135-59.830547-40.278275 41.03859 60.954136 59.829524c21.571252 21.179326 33.479442 49.352936 33.479442 79.209881-0.056282 29.887644-11.90819 57.97632-33.479442 79.184299l-60.954136 59.8285c-33.706616 33.117192-88.536275 33.145845-122.301219 0L461.011824 655.152065c-21.571252-21.206955-33.453859-49.268002-33.453859-79.182252-0.028653-29.858992 11.882608-58.004973 33.031234-78.81898l42.374002-39.886349-39.451445-41.851093-42.781277 40.306927c-32.724244 32.078539-50.72928 74.80251-50.700627 120.250518 0 45.475637 18.005037 88.143327 50.700627 120.219818l121.892921 119.686677c27.977136 27.472647 64.717848 41.152177 101.401255 41.152177 36.740712 0 73.480401-13.67953 101.456514-41.152177l60.954135-59.856129c32.695591-32.078539 50.671975-74.745205 50.727233-120.221866 0.001023-45.448007-18.030619-88.170956-50.72621-120.249494z" fill="#4e46e5" p-id="11674"></path><path d="M298.43233 257.439789c44.941472-44.100316 118.029948-44.100316 162.915138 0l101.612056 99.71485c21.573298 21.209002 33.427253 49.297678 33.483535 79.156669 0 29.886621-11.910237 58.030555-33.483535 79.239557l-60.968462 59.829524 40.295671 41.03859 60.951065-59.830547c32.695591-32.078539 50.731327-74.801487 50.731327-120.277124-0.060375-45.448007-18.035736-88.114674-50.731327-120.220842l-101.610009-99.715873c-67.047911-65.840413-176.314282-65.896694-243.47578 0l-40.614942 39.88635c-32.695591 32.106168-50.701651 74.773858-50.701651 120.220841-0.028653 45.475637 17.975361 88.199608 50.701651 120.278147l40.614942 39.887373 40.279298-41.039613-40.614942-39.88635c-21.574321-21.178303-33.483535-49.351913-33.45386-79.239557 0-29.857969 11.879538-57.946644 33.45386-79.155646l40.615965-39.886349z" fill="#4e46e5" p-id="11675"></path></svg>